<svg id="Layer_1" data-name="Layer 1" xmlns="http://www.w3.org/2000/svg" viewBox="0 0 744.82 774.86"><defs><style>.cls-1{fill:#c29c1d;}</style></defs><rect class="cls-1" x="150.46" y="215.5" width="48" height="48" rx="5"/><rect class="cls-1" x="199" y="860" width="48" height="48" rx="5" transform="translate(-297.46 -61.97) rotate(-13.3)"/><rect class="cls-1" x="418" y="691" width="48" height="48" rx="5" transform="translate(-220.91 -46.31) rotate(-10.31)"/><rect class="cls-1" x="587.96" y="664" width="48" height="48" rx="5"/><rect class="cls-1" x="611.96" width="48" height="48" rx="5"/><rect class="cls-1" x="151.5" y="179.5" width="48" height="48" rx="5" transform="translate(-142.16 -91.16) rotate(-13.3)"/><rect class="cls-1" x="375.56" y="117.17" width="48" height="48" rx="5"/><rect class="cls-1" x="107" y="525" width="48" height="48" rx="5" transform="translate(192.01 -128.95) rotate(30)"/><rect class="cls-1" x="793" y="549" width="48" height="48" rx="5" transform="translate(-209.97 66.36) rotate(-13.3)"/><rect class="cls-1" x="610.61" y="379.17" width="48" height="48" rx="5" transform="translate(-45.32 -212.38) rotate(7.1)"/></svg>